<svg width="32" height="32" viewBox="0 0 32 32" fill="none" xmlns="http://www.w3.org/2000/svg">
  <path fill="#379bc6" fill-rule="evenodd" clip-rule="evenodd" transform="scale(0.2759) translate(-1, 0)" d="M59,0a58,58,0,1,0,58,58A58,58,0,0,0,59,0ZM41.11,90.22h-14V45.5H41.11ZM33.64,39.89a8.18,8.18,0,1,1,8.11-8.17A8.14,8.14,0,0,1,33.64,39.89ZM92.22,90.22h-14V67c0-6.38-2.35-9.94-7.24-9.94-5.32,0-8.1,3.71-8.1,9.94V90.22H50.06V45.5H62.83v6a15.41,15.41,0,0,1,13.32-7.39c9.37,0,16.07,5.8,16.07,17.78Z"/>
</svg>
