<svg width="32" height="32" viewBox="0 0 32 32" fill="none" xmlns="http://www.w3.org/2000/svg">
  <path transform="scale(0.1311)" fill="#4b4995" d="M122,0A122,122,0,1,0,244,122,122,122,0,0,0,122,0Zm73.4,84.34c.11,1.63.11,3.26.11,4.9,0,50-38.09,107.76-107.76,107.76v0a107.14,107.14,0,0,1-58-17,77.54,77.54,0,0,0,9,.55,76.07,76.07,0,0,0,47-16.25A37.89,37.89,0,0,1,50.37,138a37.72,37.72,0,0,0,17.1-.65,37.87,37.87,0,0,1-30.38-37.12v-.48a37.65,37.65,0,0,0,17.19,4.74A37.91,37.91,0,0,1,42.55,53.91a107.53,107.53,0,0,0,78.06,39.57,37.91,37.91,0,0,1,64.54-34.55,75.94,75.94,0,0,0,24-9.19,38,38,0,0,1-16.65,20.95,75.42,75.42,0,0,0,21.75-6A76.82,76.82,0,0,1,195.4,84.34Z"/>
</svg>
